<svg width="612" height="349" viewBox="0 0 612 349" fill="none" xmlns="http://www.w3.org/2000/svg">
<path d="M131.83 129.784C131.011 121.534 127.5 115.125 121.295 110.557C115.091 105.989 106.67 103.705 96.0341 103.705C88.8068 103.705 82.7045 104.727 77.7273 106.773C72.75 108.75 68.9318 111.511 66.2727 115.057C63.6818 118.602 62.3864 122.625 62.3864 127.125C62.25 130.875 63.0341 134.148 64.7386 136.943C66.5114 139.739 68.9318 142.159 72 144.205C75.0682 146.182 78.6136 147.92 82.6364 149.42C86.6591 150.852 90.9545 152.08 95.5227 153.102L114.341 157.602C123.477 159.648 131.864 162.375 139.5 165.784C147.136 169.193 153.75 173.386 159.341 178.364C164.932 183.341 169.261 189.205 172.33 195.955C175.466 202.705 177.068 210.443 177.136 219.17C177.068 231.989 173.795 243.102 167.318 252.511C160.909 261.852 151.636 269.114 139.5 274.295C127.432 279.409 112.875 281.966 95.8296 281.966C78.9205 281.966 64.1932 279.375 51.6477 274.193C39.1705 269.011 29.4205 261.341 22.3977 251.182C15.4432 240.955 11.7955 228.307 11.4545 213.239H54.3068C54.7841 220.261 56.7955 226.125 60.3409 230.83C63.9545 235.466 68.7614 238.977 74.7614 241.364C80.8295 243.682 87.6818 244.841 95.3182 244.841C102.818 244.841 109.33 243.75 114.852 241.568C120.443 239.386 124.773 236.352 127.841 232.466C130.909 228.58 132.443 224.114 132.443 219.068C132.443 214.364 131.045 210.409 128.25 207.205C125.523 204 121.5 201.273 116.182 199.023C110.932 196.773 104.489 194.727 96.8523 192.886L74.0455 187.159C56.3864 182.864 42.4432 176.148 32.2159 167.011C21.9886 157.875 16.9091 145.568 16.9773 130.091C16.9091 117.409 20.2841 106.33 27.1023 96.8523C33.9886 87.375 43.4318 79.9773 55.4318 74.6591C67.4318 69.3409 81.0682 66.6818 96.3409 66.6818C111.886 66.6818 125.455 69.3409 137.045 74.6591C148.705 79.9773 157.773 87.375 164.25 96.8523C170.727 106.33 174.068 117.307 174.273 129.784H131.83ZM244.764 69.5454L295.389 228.682H297.332L348.06 69.5454H397.151L324.946 279H267.878L195.571 69.5454H244.764ZM549.435 137.25C548.003 132.273 545.991 127.875 543.401 124.057C540.81 120.17 537.639 116.898 533.889 114.239C530.207 111.511 525.98 109.432 521.207 108C516.503 106.568 511.287 105.852 505.56 105.852C494.855 105.852 485.446 108.511 477.332 113.83C469.287 119.148 463.014 126.886 458.514 137.045C454.014 147.136 451.764 159.477 451.764 174.068C451.764 188.659 453.98 201.068 458.412 211.295C462.844 221.523 469.116 229.33 477.23 234.716C485.344 240.034 494.923 242.693 505.969 242.693C515.991 242.693 524.548 240.92 531.639 237.375C538.798 233.761 544.253 228.682 548.003 222.136C551.821 215.591 553.73 207.852 553.73 198.92L562.73 200.25H508.73V166.909H596.378V193.295C596.378 211.705 592.491 227.523 584.719 240.75C576.946 253.909 566.241 264.068 552.605 271.227C538.969 278.318 523.355 281.864 505.764 281.864C486.128 281.864 468.878 277.534 454.014 268.875C439.151 260.148 427.56 247.773 419.241 231.75C410.991 215.659 406.866 196.568 406.866 174.477C406.866 157.5 409.321 142.364 414.23 129.068C419.207 115.705 426.162 104.386 435.094 95.1136C444.026 85.8409 454.423 78.7841 466.287 73.9432C478.151 69.1023 491.003 66.6818 504.844 66.6818C516.707 66.6818 527.753 68.4204 537.98 71.8977C548.207 75.3068 557.276 80.1477 565.185 86.4204C573.162 92.6932 579.673 100.159 584.719 108.818C589.764 117.409 593.003 126.886 594.435 137.25H549.435Z" fill="#695FE6"/>
<path d="M23.5909 298.818C23.3977 296.875 22.5398 295.33 21.017 294.182C19.4943 293.034 17.5795 292.46 15.2727 292.46C13.6477 292.46 12.2159 292.739 10.9773 293.295C9.75 293.852 8.78409 294.625 8.07955 295.614C7.38636 296.591 7.03977 297.705 7.03977 298.955C7.03977 299.875 7.23864 300.682 7.63636 301.375C8.03409 302.068 8.56818 302.665 9.23864 303.165C9.92045 303.653 10.6705 304.074 11.4886 304.426C12.3182 304.778 13.1534 305.074 13.9943 305.312L17.6761 306.369C18.7898 306.676 19.9034 307.068 21.017 307.545C22.1307 308.023 23.1477 308.625 24.0682 309.352C25 310.068 25.7443 310.949 26.3011 311.994C26.8693 313.028 27.1534 314.273 27.1534 315.727C27.1534 317.591 26.6705 319.267 25.7045 320.756C24.7386 322.244 23.3523 323.426 21.5455 324.301C19.7386 325.165 17.5739 325.597 15.0511 325.597C12.6761 325.597 10.6136 325.205 8.86364 324.42C7.11364 323.625 5.73864 322.528 4.73864 321.131C3.73864 319.733 3.17614 318.114 3.05114 316.273H6.32386C6.4375 317.648 6.89205 318.812 7.6875 319.767C8.48295 320.722 9.51705 321.449 10.7898 321.949C12.0625 322.437 13.483 322.682 15.0511 322.682C16.7898 322.682 18.3352 322.392 19.6875 321.812C21.0511 321.222 22.1193 320.403 22.892 319.358C23.6761 318.301 24.0682 317.074 24.0682 315.676C24.0682 314.494 23.7614 313.506 23.1477 312.71C22.5341 311.903 21.6761 311.227 20.5739 310.682C19.483 310.136 18.2159 309.653 16.7727 309.233L12.5966 308.006C9.85795 307.187 7.73295 306.057 6.22159 304.614C4.71023 303.17 3.95455 301.33 3.95455 299.091C3.95455 297.216 4.45455 295.568 5.45455 294.148C6.46591 292.716 7.82955 291.602 9.54545 290.807C11.2727 290 13.2102 289.597 15.358 289.597C17.5284 289.597 19.4489 289.994 21.1193 290.79C22.7898 291.585 24.1136 292.682 25.0909 294.08C26.0795 295.466 26.608 297.045 26.6761 298.818H23.5909ZM44.4205 325.545C42.0795 325.545 40.0398 324.96 38.3011 323.79C36.5739 322.619 35.233 321.017 34.2784 318.983C33.3239 316.949 32.8466 314.631 32.8466 312.028C32.8466 309.403 33.3295 307.068 34.2955 305.023C35.2727 302.977 36.625 301.375 38.3523 300.216C40.0795 299.045 42.0852 298.46 44.3693 298.46C46.1193 298.46 47.7045 298.801 49.125 299.483C50.5455 300.153 51.7159 301.102 52.6364 302.33C53.5682 303.545 54.1534 304.966 54.392 306.591H51.3239C51.0057 305.114 50.2386 303.852 49.0227 302.807C47.8182 301.75 46.2841 301.222 44.4205 301.222C42.75 301.222 41.2727 301.676 39.9886 302.585C38.7045 303.483 37.6989 304.739 36.9716 306.352C36.2557 307.955 35.8977 309.812 35.8977 311.926C35.8977 314.051 36.25 315.932 36.9545 317.568C37.6591 319.193 38.6477 320.466 39.9205 321.386C41.2045 322.307 42.7045 322.767 44.4205 322.767C45.5795 322.767 46.6364 322.551 47.5909 322.119C48.5568 321.676 49.3636 321.051 50.0114 320.244C50.6705 319.437 51.1136 318.477 51.3409 317.364H54.4091C54.1818 318.943 53.6193 320.352 52.7216 321.591C51.8352 322.818 50.6818 323.784 49.2614 324.489C47.8523 325.193 46.2386 325.545 44.4205 325.545ZM68.2244 325.597C66.6449 325.597 65.2017 325.29 63.8949 324.676C62.5881 324.051 61.5483 323.153 60.7756 321.983C60.0028 320.801 59.6165 319.369 59.6165 317.688C59.6165 316.392 59.8608 315.301 60.3494 314.415C60.8381 313.528 61.5313 312.801 62.429 312.233C63.3267 311.665 64.3892 311.216 65.6165 310.886C66.8438 310.557 68.196 310.301 69.6733 310.119C71.1392 309.937 72.3778 309.778 73.3892 309.642C74.4119 309.506 75.1903 309.29 75.7244 308.994C76.2585 308.699 76.5256 308.222 76.5256 307.562V306.949C76.5256 305.165 75.9915 303.761 74.9233 302.739C73.8665 301.705 72.3438 301.188 70.3551 301.188C68.4688 301.188 66.929 301.602 65.7358 302.432C64.554 303.261 63.7244 304.239 63.2472 305.364L60.3665 304.324C60.9574 302.892 61.7756 301.75 62.821 300.898C63.8665 300.034 65.0369 299.415 66.3324 299.04C67.6278 298.653 68.9403 298.46 70.2699 298.46C71.2699 298.46 72.3097 298.591 73.3892 298.852C74.4801 299.114 75.4915 299.568 76.4233 300.216C77.3551 300.852 78.1108 301.744 78.6903 302.892C79.2699 304.028 79.5597 305.472 79.5597 307.222V325H76.5256V320.858H76.3381C75.9744 321.631 75.4347 322.381 74.7188 323.108C74.0028 323.835 73.1051 324.432 72.0256 324.898C70.946 325.364 69.679 325.597 68.2244 325.597ZM68.6335 322.818C70.2472 322.818 71.6449 322.46 72.8267 321.744C74.0085 321.028 74.9176 320.08 75.554 318.898C76.2017 317.705 76.5256 316.392 76.5256 314.96V311.176C76.2983 311.392 75.9176 311.585 75.3835 311.756C74.8608 311.926 74.2528 312.08 73.5597 312.216C72.8778 312.341 72.196 312.449 71.5142 312.54C70.8324 312.631 70.2188 312.71 69.6733 312.778C68.196 312.96 66.9347 313.244 65.8892 313.631C64.8438 314.017 64.0426 314.551 63.4858 315.233C62.929 315.903 62.6506 316.767 62.6506 317.824C62.6506 319.415 63.2188 320.648 64.3551 321.523C65.4915 322.386 66.9176 322.818 68.6335 322.818ZM90.6648 290.091V325H87.6307V290.091H90.6648ZM106.006 325.597C104.426 325.597 102.983 325.29 101.676 324.676C100.369 324.051 99.3295 323.153 98.5568 321.983C97.7841 320.801 97.3977 319.369 97.3977 317.688C97.3977 316.392 97.642 315.301 98.1307 314.415C98.6193 313.528 99.3125 312.801 100.21 312.233C101.108 311.665 102.17 311.216 103.398 310.886C104.625 310.557 105.977 310.301 107.455 310.119C108.92 309.937 110.159 309.778 111.17 309.642C112.193 309.506 112.972 309.29 113.506 308.994C114.04 308.699 114.307 308.222 114.307 307.562V306.949C114.307 305.165 113.773 303.761 112.705 302.739C111.648 301.705 110.125 301.188 108.136 301.188C106.25 301.188 104.71 301.602 103.517 302.432C102.335 303.261 101.506 304.239 101.028 305.364L98.1477 304.324C98.7386 302.892 99.5568 301.75 100.602 300.898C101.648 300.034 102.818 299.415 104.114 299.04C105.409 298.653 106.722 298.46 108.051 298.46C109.051 298.46 110.091 298.591 111.17 298.852C112.261 299.114 113.273 299.568 114.205 300.216C115.136 300.852 115.892 301.744 116.472 302.892C117.051 304.028 117.341 305.472 117.341 307.222V325H114.307V320.858H114.119C113.756 321.631 113.216 322.381 112.5 323.108C111.784 323.835 110.886 324.432 109.807 324.898C108.727 325.364 107.46 325.597 106.006 325.597ZM106.415 322.818C108.028 322.818 109.426 322.46 110.608 321.744C111.79 321.028 112.699 320.08 113.335 318.898C113.983 317.705 114.307 316.392 114.307 314.96V311.176C114.08 311.392 113.699 311.585 113.165 311.756C112.642 311.926 112.034 312.08 111.341 312.216C110.659 312.341 109.977 312.449 109.295 312.54C108.614 312.631 108 312.71 107.455 312.778C105.977 312.96 104.716 313.244 103.67 313.631C102.625 314.017 101.824 314.551 101.267 315.233C100.71 315.903 100.432 316.767 100.432 317.824C100.432 319.415 101 320.648 102.136 321.523C103.273 322.386 104.699 322.818 106.415 322.818ZM126.043 325V290.091H129.094V303.812H129.366C129.707 303.028 130.196 302.222 130.832 301.392C131.48 300.562 132.327 299.869 133.372 299.312C134.429 298.744 135.759 298.46 137.361 298.46C139.509 298.46 141.395 299.028 143.02 300.165C144.645 301.29 145.912 302.869 146.821 304.903C147.73 306.926 148.185 309.284 148.185 311.977C148.185 314.682 147.73 317.051 146.821 319.085C145.923 321.119 144.662 322.705 143.037 323.841C141.423 324.977 139.548 325.545 137.412 325.545C135.821 325.545 134.491 325.261 133.423 324.693C132.366 324.125 131.514 323.426 130.866 322.597C130.219 321.756 129.719 320.937 129.366 320.142H128.991V325H126.043ZM129.043 311.926C129.043 314.04 129.355 315.915 129.98 317.551C130.616 319.176 131.526 320.455 132.707 321.386C133.901 322.307 135.344 322.767 137.037 322.767C138.776 322.767 140.247 322.29 141.452 321.335C142.656 320.369 143.571 319.068 144.196 317.432C144.821 315.795 145.134 313.96 145.134 311.926C145.134 309.915 144.821 308.102 144.196 306.489C143.582 304.875 142.673 303.597 141.469 302.653C140.264 301.699 138.787 301.222 137.037 301.222C135.332 301.222 133.884 301.682 132.69 302.602C131.509 303.511 130.605 304.773 129.98 306.386C129.355 307.989 129.043 309.835 129.043 311.926ZM157.884 290.091V325H154.849V290.091H157.884ZM176.497 325.545C174.054 325.545 171.94 324.977 170.156 323.841C168.372 322.693 166.991 321.108 166.014 319.085C165.048 317.051 164.565 314.71 164.565 312.062C164.565 309.426 165.048 307.085 166.014 305.04C166.991 302.983 168.338 301.375 170.054 300.216C171.781 299.045 173.776 298.46 176.037 298.46C177.457 298.46 178.827 298.722 180.145 299.244C181.463 299.756 182.645 300.545 183.69 301.614C184.747 302.67 185.582 304.006 186.196 305.619C186.81 307.222 187.116 309.119 187.116 311.312V312.812H166.662V310.136H184.014C184.014 308.455 183.673 306.943 182.991 305.602C182.321 304.25 181.384 303.182 180.179 302.398C178.986 301.614 177.605 301.222 176.037 301.222C174.378 301.222 172.918 301.665 171.656 302.551C170.395 303.437 169.406 304.608 168.69 306.062C167.986 307.517 167.628 309.108 167.616 310.835V312.438C167.616 314.517 167.974 316.335 168.69 317.892C169.418 319.437 170.446 320.636 171.776 321.489C173.105 322.341 174.679 322.767 176.497 322.767C177.736 322.767 178.821 322.574 179.753 322.188C180.696 321.801 181.486 321.284 182.122 320.636C182.77 319.977 183.259 319.256 183.588 318.472L186.469 319.409C186.071 320.511 185.418 321.528 184.509 322.46C183.611 323.392 182.486 324.142 181.134 324.71C179.793 325.267 178.247 325.545 176.497 325.545Z" fill="#111111"/>
<path d="M446.79 301C446.472 299.841 446.006 298.756 445.392 297.744C444.778 296.722 444.017 295.83 443.108 295.068C442.21 294.295 441.17 293.693 439.989 293.261C438.818 292.83 437.511 292.614 436.068 292.614C433.795 292.614 431.761 293.205 429.966 294.386C428.17 295.568 426.75 297.273 425.705 299.5C424.67 301.727 424.153 304.409 424.153 307.545C424.153 310.67 424.676 313.347 425.722 315.574C426.767 317.801 428.199 319.511 430.017 320.705C431.847 321.886 433.938 322.477 436.29 322.477C438.438 322.477 440.335 322 441.983 321.045C443.631 320.091 444.915 318.727 445.835 316.955C446.767 315.182 447.222 313.074 447.199 310.631L448.222 310.955H437.04V308.091H450.301V310.955C450.301 313.932 449.699 316.506 448.494 318.676C447.29 320.847 445.636 322.523 443.534 323.705C441.432 324.886 439.017 325.477 436.29 325.477C433.244 325.477 430.58 324.744 428.295 323.278C426.011 321.801 424.233 319.722 422.96 317.04C421.699 314.347 421.068 311.182 421.068 307.545C421.068 304.807 421.432 302.335 422.159 300.131C422.886 297.926 423.915 296.04 425.244 294.472C426.585 292.903 428.17 291.705 430 290.875C431.83 290.034 433.852 289.614 436.068 289.614C437.977 289.614 439.722 289.915 441.301 290.517C442.892 291.119 444.29 291.949 445.494 293.006C446.71 294.051 447.705 295.261 448.477 296.636C449.261 298 449.79 299.455 450.062 301H446.79ZM457.584 325V298.818H460.533V302.841H460.754C461.277 301.523 462.186 300.46 463.482 299.653C464.788 298.835 466.266 298.426 467.913 298.426C468.163 298.426 468.442 298.432 468.749 298.443C469.055 298.455 469.311 298.466 469.516 298.477V301.562C469.379 301.54 469.141 301.506 468.8 301.46C468.459 301.415 468.089 301.392 467.692 301.392C466.328 301.392 465.112 301.682 464.044 302.261C462.987 302.83 462.152 303.619 461.538 304.631C460.925 305.642 460.618 306.795 460.618 308.091V325H457.584ZM482.006 325.597C480.426 325.597 478.983 325.29 477.676 324.676C476.369 324.051 475.33 323.153 474.557 321.983C473.784 320.801 473.398 319.369 473.398 317.688C473.398 316.392 473.642 315.301 474.131 314.415C474.619 313.528 475.313 312.801 476.21 312.233C477.108 311.665 478.17 311.216 479.398 310.886C480.625 310.557 481.977 310.301 483.455 310.119C484.92 309.937 486.159 309.778 487.17 309.642C488.193 309.506 488.972 309.29 489.506 308.994C490.04 308.699 490.307 308.222 490.307 307.562V306.949C490.307 305.165 489.773 303.761 488.705 302.739C487.648 301.705 486.125 301.188 484.136 301.188C482.25 301.188 480.71 301.602 479.517 302.432C478.335 303.261 477.506 304.239 477.028 305.364L474.148 304.324C474.739 302.892 475.557 301.75 476.602 300.898C477.648 300.034 478.818 299.415 480.114 299.04C481.409 298.653 482.722 298.46 484.051 298.46C485.051 298.46 486.091 298.591 487.17 298.852C488.261 299.114 489.273 299.568 490.205 300.216C491.136 300.852 491.892 301.744 492.472 302.892C493.051 304.028 493.341 305.472 493.341 307.222V325H490.307V320.858H490.119C489.756 321.631 489.216 322.381 488.5 323.108C487.784 323.835 486.886 324.432 485.807 324.898C484.727 325.364 483.46 325.597 482.006 325.597ZM482.415 322.818C484.028 322.818 485.426 322.46 486.608 321.744C487.79 321.028 488.699 320.08 489.335 318.898C489.983 317.705 490.307 316.392 490.307 314.96V311.176C490.08 311.392 489.699 311.585 489.165 311.756C488.642 311.926 488.034 312.08 487.341 312.216C486.659 312.341 485.977 312.449 485.295 312.54C484.614 312.631 484 312.71 483.455 312.778C481.977 312.96 480.716 313.244 479.67 313.631C478.625 314.017 477.824 314.551 477.267 315.233C476.71 315.903 476.432 316.767 476.432 317.824C476.432 319.415 477 320.648 478.136 321.523C479.273 322.386 480.699 322.818 482.415 322.818ZM501.412 334.818V298.818H504.361V303.812H504.719C505.082 303.028 505.582 302.227 506.219 301.409C506.855 300.58 507.696 299.881 508.741 299.312C509.798 298.744 511.128 298.46 512.73 298.46C514.889 298.46 516.776 299.028 518.389 300.165C520.014 301.29 521.276 302.869 522.173 304.903C523.082 306.926 523.537 309.284 523.537 311.977C523.537 314.682 523.082 317.051 522.173 319.085C521.276 321.119 520.014 322.705 518.389 323.841C516.776 324.977 514.901 325.545 512.764 325.545C511.185 325.545 509.861 325.261 508.793 324.693C507.736 324.125 506.878 323.426 506.219 322.597C505.571 321.756 505.071 320.937 504.719 320.142H504.446V334.818H501.412ZM504.412 311.926C504.412 314.04 504.724 315.915 505.349 317.551C505.986 319.176 506.895 320.455 508.077 321.386C509.27 322.307 510.713 322.767 512.406 322.767C514.145 322.767 515.611 322.29 516.804 321.335C518.009 320.369 518.923 319.068 519.548 317.432C520.185 315.795 520.503 313.96 520.503 311.926C520.503 309.915 520.19 308.102 519.565 306.489C518.952 304.875 518.043 303.597 516.838 302.653C515.634 301.699 514.156 301.222 512.406 301.222C510.702 301.222 509.253 301.682 508.06 302.602C506.866 303.511 505.957 304.773 505.332 306.386C504.719 307.989 504.412 309.835 504.412 311.926ZM533.227 308.636V325H530.193V290.091H533.227V302.926H533.5C534.114 301.574 535.063 300.494 536.347 299.688C537.642 298.881 539.278 298.477 541.256 298.477C543.028 298.477 544.585 298.841 545.926 299.568C547.267 300.295 548.312 301.369 549.062 302.79C549.812 304.21 550.188 305.96 550.188 308.04V325H547.136V308.227C547.136 306.068 546.534 304.369 545.33 303.131C544.136 301.881 542.523 301.256 540.489 301.256C539.091 301.256 537.847 301.551 536.756 302.142C535.665 302.733 534.801 303.585 534.165 304.699C533.54 305.801 533.227 307.114 533.227 308.636ZM558.212 325V298.818H561.263V325H558.212ZM559.763 294.318C559.138 294.318 558.604 294.108 558.161 293.688C557.717 293.256 557.496 292.739 557.496 292.136C557.496 291.534 557.717 291.023 558.161 290.602C558.604 290.17 559.138 289.955 559.763 289.955C560.388 289.955 560.922 290.17 561.365 290.602C561.808 291.023 562.03 291.534 562.03 292.136C562.03 292.739 561.808 293.256 561.365 293.688C560.922 294.108 560.388 294.318 559.763 294.318ZM579.514 325.545C577.173 325.545 575.134 324.96 573.395 323.79C571.668 322.619 570.327 321.017 569.372 318.983C568.418 316.949 567.94 314.631 567.94 312.028C567.94 309.403 568.423 307.068 569.389 305.023C570.366 302.977 571.719 301.375 573.446 300.216C575.173 299.045 577.179 298.46 579.463 298.46C581.213 298.46 582.798 298.801 584.219 299.483C585.639 300.153 586.81 301.102 587.73 302.33C588.662 303.545 589.247 304.966 589.486 306.591H586.418C586.099 305.114 585.332 303.852 584.116 302.807C582.912 301.75 581.378 301.222 579.514 301.222C577.844 301.222 576.366 301.676 575.082 302.585C573.798 303.483 572.793 304.739 572.065 306.352C571.349 307.955 570.991 309.812 570.991 311.926C570.991 314.051 571.344 315.932 572.048 317.568C572.753 319.193 573.741 320.466 575.014 321.386C576.298 322.307 577.798 322.767 579.514 322.767C580.673 322.767 581.73 322.551 582.685 322.119C583.651 321.676 584.457 321.051 585.105 320.244C585.764 319.437 586.207 318.477 586.435 317.364H589.503C589.276 318.943 588.713 320.352 587.815 321.591C586.929 322.818 585.776 323.784 584.355 324.489C582.946 325.193 581.332 325.545 579.514 325.545Z" fill="#111111"/>
<path d="M231.688 290.091L242.597 320.858H242.903L253.812 290.091H257.153L244.455 325H241.045L228.347 290.091H231.688ZM270.653 325.545C268.21 325.545 266.097 324.977 264.312 323.841C262.528 322.693 261.148 321.108 260.17 319.085C259.205 317.051 258.722 314.71 258.722 312.062C258.722 309.426 259.205 307.085 260.17 305.04C261.148 302.983 262.494 301.375 264.21 300.216C265.938 299.045 267.932 298.46 270.193 298.46C271.614 298.46 272.983 298.722 274.301 299.244C275.619 299.756 276.801 300.545 277.847 301.614C278.903 302.67 279.739 304.006 280.352 305.619C280.966 307.222 281.273 309.119 281.273 311.312V312.812H260.818V310.136H278.17C278.17 308.455 277.83 306.943 277.148 305.602C276.477 304.25 275.54 303.182 274.335 302.398C273.142 301.614 271.761 301.222 270.193 301.222C268.534 301.222 267.074 301.665 265.812 302.551C264.551 303.437 263.563 304.608 262.847 306.062C262.142 307.517 261.784 309.108 261.773 310.835V312.438C261.773 314.517 262.131 316.335 262.847 317.892C263.574 319.437 264.602 320.636 265.932 321.489C267.261 322.341 268.835 322.767 270.653 322.767C271.892 322.767 272.977 322.574 273.909 322.188C274.852 321.801 275.642 321.284 276.278 320.636C276.926 319.977 277.415 319.256 277.744 318.472L280.625 319.409C280.227 320.511 279.574 321.528 278.665 322.46C277.767 323.392 276.642 324.142 275.29 324.71C273.949 325.267 272.403 325.545 270.653 325.545ZM298.186 325.545C295.845 325.545 293.805 324.96 292.067 323.79C290.339 322.619 288.999 321.017 288.044 318.983C287.089 316.949 286.612 314.631 286.612 312.028C286.612 309.403 287.095 307.068 288.061 305.023C289.038 302.977 290.391 301.375 292.118 300.216C293.845 299.045 295.851 298.46 298.135 298.46C299.885 298.46 301.47 298.801 302.891 299.483C304.311 300.153 305.482 301.102 306.402 302.33C307.334 303.545 307.919 304.966 308.158 306.591H305.089C304.771 305.114 304.004 303.852 302.788 302.807C301.584 301.75 300.05 301.222 298.186 301.222C296.516 301.222 295.038 301.676 293.754 302.585C292.47 303.483 291.464 304.739 290.737 306.352C290.021 307.955 289.663 309.812 289.663 311.926C289.663 314.051 290.016 315.932 290.72 317.568C291.425 319.193 292.413 320.466 293.686 321.386C294.97 322.307 296.47 322.767 298.186 322.767C299.345 322.767 300.402 322.551 301.357 322.119C302.322 321.676 303.129 321.051 303.777 320.244C304.436 319.437 304.879 318.477 305.107 317.364H308.175C307.947 318.943 307.385 320.352 306.487 321.591C305.601 322.818 304.447 323.784 303.027 324.489C301.618 325.193 300.004 325.545 298.186 325.545ZM324.99 298.818V301.46H312.496V298.818H324.99ZM316.399 292.545H319.45V318.165C319.45 319.256 319.638 320.114 320.013 320.739C320.388 321.352 320.876 321.79 321.479 322.051C322.081 322.301 322.723 322.426 323.405 322.426C323.803 322.426 324.143 322.403 324.428 322.358C324.712 322.301 324.962 322.244 325.178 322.188L325.825 324.932C325.53 325.045 325.166 325.148 324.734 325.239C324.303 325.341 323.768 325.392 323.132 325.392C322.018 325.392 320.945 325.148 319.911 324.659C318.888 324.17 318.047 323.443 317.388 322.477C316.729 321.511 316.399 320.312 316.399 318.881V292.545ZM341.776 325.545C339.514 325.545 337.514 324.972 335.776 323.824C334.048 322.676 332.696 321.091 331.719 319.068C330.741 317.034 330.253 314.687 330.253 312.028C330.253 309.347 330.741 306.989 331.719 304.955C332.696 302.909 334.048 301.318 335.776 300.182C337.514 299.034 339.514 298.46 341.776 298.46C344.037 298.46 346.031 299.034 347.759 300.182C349.486 301.33 350.838 302.92 351.815 304.955C352.804 306.989 353.298 309.347 353.298 312.028C353.298 314.687 352.81 317.034 351.832 319.068C350.855 321.091 349.497 322.676 347.759 323.824C346.031 324.972 344.037 325.545 341.776 325.545ZM341.776 322.767C343.594 322.767 345.134 322.278 346.395 321.301C347.656 320.324 348.611 319.023 349.259 317.398C349.918 315.773 350.247 313.983 350.247 312.028C350.247 310.074 349.918 308.278 349.259 306.642C348.611 305.006 347.656 303.693 346.395 302.705C345.134 301.716 343.594 301.222 341.776 301.222C339.969 301.222 338.429 301.716 337.156 302.705C335.895 303.693 334.935 305.006 334.276 306.642C333.628 308.278 333.304 310.074 333.304 312.028C333.304 313.983 333.628 315.773 334.276 317.398C334.935 319.023 335.895 320.324 337.156 321.301C338.418 322.278 339.957 322.767 341.776 322.767ZM359.959 325V298.818H362.908V302.841H363.129C363.652 301.523 364.561 300.46 365.857 299.653C367.163 298.835 368.641 298.426 370.288 298.426C370.538 298.426 370.817 298.432 371.124 298.443C371.43 298.455 371.686 298.466 371.891 298.477V301.562C371.754 301.54 371.516 301.506 371.175 301.46C370.834 301.415 370.464 301.392 370.067 301.392C368.703 301.392 367.487 301.682 366.419 302.261C365.362 302.83 364.527 303.619 363.913 304.631C363.3 305.642 362.993 306.795 362.993 308.091V325H359.959Z" fill="#111111"/>
</svg>
